<svg width="150" height="150" viewBox="0 0 150 150" fill="none" xmlns="http://www.w3.org/2000/svg">
<path d="M127 0H22C13.7275 0 7 6.7275 7 15V105C7 113.273 13.7275 120 22 120H48.25L74.5 150L100.75 120H127C135.273 120 142 113.273 142 105V15C142 6.7275 135.273 0 127 0ZM52 75C50.0297 74.9995 48.0787 74.6109 46.2586 73.8565C44.4384 73.102 42.7847 71.9964 41.3918 70.6029C39.999 69.2093 38.8942 67.555 38.1407 65.7345C37.3871 63.9139 36.9995 61.9628 37 59.9925C37.0005 58.0222 37.3891 56.0712 38.1435 54.2511C38.898 52.4309 40.0036 50.7772 41.3971 49.3843C42.7907 47.9915 44.445 46.8867 46.2655 46.1332C48.0861 45.3796 50.0372 44.992 52.0075 44.9925C55.9867 44.9935 59.8026 46.5752 62.6157 49.3896C65.4287 52.2041 67.0085 56.0208 67.0075 60C67.0065 63.9792 65.4248 67.7951 62.6104 70.6082C59.7959 73.4212 55.9792 75.001 52 75ZM97 75C95.0297 74.9995 93.0787 74.6109 91.2586 73.8565C89.4384 73.102 87.7847 71.9964 86.3918 70.6029C84.999 69.2093 83.8942 67.555 83.1407 65.7345C82.3871 63.9139 81.9995 61.9628 82 59.9925C82.0005 58.0222 82.3891 56.0712 83.1435 54.2511C83.898 52.4309 85.0036 50.7772 86.3971 49.3843C87.7907 47.9915 89.445 46.8867 91.2655 46.1332C93.0861 45.3796 95.0372 44.992 97.0075 44.9925C100.987 44.9935 104.803 46.5752 107.616 49.3896C110.429 52.2041 112.008 56.0208 112.007 60C112.007 63.9792 110.425 67.7951 107.61 70.6082C104.796 73.4212 100.979 75.001 97 75Z" fill="#0284C7"/>
</svg>
